<svg width="300" height="200" viewBox="0 0 300 200" fill="none" xmlns="http://www.w3.org/2000/svg">
<g clip-path="url(#clip0_47_43)">
<g filter="url(#filter0_d_47_43)">
<path d="M215.107 36H198.142C197.293 36 196.83 36.9912 197.375 37.642L246.352 96.127C246.651 96.4842 246.664 97.0006 246.383 97.3722L197.212 162.397C196.714 163.056 197.184 164 198.01 164H215.077C215.384 164 215.674 163.859 215.863 163.618L267.872 97.3874C268.168 97.0101 268.155 96.4755 267.84 96.1135L215.862 36.3438C215.672 36.1254 215.397 36 215.107 36Z" fill="black" fill-opacity="0.23"/>
<path d="M215.107 36H198.142C197.293 36 196.83 36.9912 197.375 37.642L246.352 96.127C246.651 96.4842 246.664 97.0006 246.383 97.3722L197.212 162.397C196.714 163.056 197.184 164 198.01 164H215.077C215.384 164 215.674 163.859 215.863 163.618L267.872 97.3874C268.168 97.0101 268.155 96.4755 267.84 96.1135L215.862 36.3438C215.672 36.1254 215.397 36 215.107 36Z" stroke="#D400CB" stroke-width="2.5"/>
</g>
<g filter="url(#filter1_d_47_43)">
<path d="M215.107 36H198.142C197.293 36 196.83 36.9912 197.375 37.642L246.352 96.127C246.651 96.4842 246.664 97.0006 246.383 97.3722L197.212 162.397C196.714 163.056 197.184 164 198.01 164H215.077C215.384 164 215.674 163.859 215.863 163.618L267.872 97.3874C268.168 97.0101 268.155 96.4755 267.84 96.1135L215.862 36.3438C215.672 36.1254 215.397 36 215.107 36Z" fill="black" fill-opacity="0.23"/>
<path d="M215.107 36H198.142C197.293 36 196.83 36.9912 197.375 37.642L246.352 96.127C246.651 96.4842 246.664 97.0006 246.383 97.3722L197.212 162.397C196.714 163.056 197.184 164 198.01 164H215.077C215.384 164 215.674 163.859 215.863 163.618L267.872 97.3874C268.168 97.0101 268.155 96.4755 267.84 96.1135L215.862 36.3438C215.672 36.1254 215.397 36 215.107 36Z" stroke="#D400CB" stroke-width="2.5"/>
</g>
<g filter="url(#filter2_d_47_43)">
<path d="M85.2753 36H102.241C103.09 36 103.552 36.9912 103.007 37.642L54.0302 96.127C53.7311 96.4842 53.7182 97.0006 53.9992 97.3722L103.17 162.397C103.668 163.056 103.198 164 102.373 164H85.3059C84.9989 164 84.709 163.859 84.5194 163.618L32.5105 97.3874C32.2142 97.0101 32.2276 96.4755 32.5424 96.1135L84.5207 36.3438C84.7106 36.1254 84.9859 36 85.2753 36Z" fill="black" fill-opacity="0.23"/>
<path d="M85.2753 36H102.241C103.09 36 103.552 36.9912 103.007 37.642L54.0302 96.127C53.7311 96.4842 53.7182 97.0006 53.9992 97.3722L103.17 162.397C103.668 163.056 103.198 164 102.373 164H85.3059C84.9989 164 84.709 163.859 84.5194 163.618L32.5105 97.3874C32.2142 97.0101 32.2276 96.4755 32.5424 96.1135L84.5207 36.3438C84.7106 36.1254 84.9859 36 85.2753 36Z" stroke="#D400CB" stroke-width="2.5"/>
</g>
<g filter="url(#filter3_d_47_43)">
<path d="M85.2753 36H102.241C103.09 36 103.552 36.9912 103.007 37.642L54.0302 96.127C53.7311 96.4842 53.7182 97.0006 53.9992 97.3722L103.17 162.397C103.668 163.056 103.198 164 102.373 164H85.3059C84.9989 164 84.709 163.859 84.5194 163.618L32.5105 97.3874C32.2142 97.0101 32.2276 96.4755 32.5424 96.1135L84.5207 36.3438C84.7106 36.1254 84.9859 36 85.2753 36Z" fill="black" fill-opacity="0.23"/>
<path d="M85.2753 36H102.241C103.09 36 103.552 36.9912 103.007 37.642L54.0302 96.127C53.7311 96.4842 53.7182 97.0006 53.9992 97.3722L103.17 162.397C103.668 163.056 103.198 164 102.373 164H85.3059C84.9989 164 84.709 163.859 84.5194 163.618L32.5105 97.3874C32.2142 97.0101 32.2276 96.4755 32.5424 96.1135L84.5207 36.3438C84.7106 36.1254 84.9859 36 85.2753 36Z" stroke="#D400CB" stroke-width="2.5"/>
</g>
<g filter="url(#filter4_d_47_43)">
<path d="M172.211 36H158.291C157.431 36 156.667 36.5497 156.394 37.3651L114.882 161.365C114.448 162.661 115.412 164 116.779 164H130.21C131.068 164 131.83 163.454 132.105 162.642L174.105 38.6416C174.545 37.3448 173.58 36 172.211 36Z" fill="black" fill-opacity="0.11"/>
<path d="M172.211 36H158.291C157.431 36 156.667 36.5497 156.394 37.3651L114.882 161.365C114.448 162.661 115.412 164 116.779 164H130.21C131.068 164 131.83 163.454 132.105 162.642L174.105 38.6416C174.545 37.3448 173.58 36 172.211 36Z" stroke="#B100AA" stroke-width="2.53"/>
</g>
</g>
<defs>
<filter id="filter0_d_47_43" x="164.756" y="3.75" width="135.58" height="192.5" filterUnits="userSpaceOnUse" color-interpolation-filters="sRGB">
<feFlood flood-opacity="0" result="BackgroundImageFix"/>
<feColorMatrix in="SourceAlpha" type="matrix" values="0 0 0 0 0 0 0 0 0 0 0 0 0 0 0 0 0 0 127 0" result="hardAlpha"/>
<feOffset/>
<feGaussianBlur stdDeviation="15.5"/>
<feColorMatrix type="matrix" values="0 0 0 0 0.08 0 0 0 0 0 0 0 0 0 1 0 0 0 1 0"/>
<feBlend mode="normal" in2="BackgroundImageFix" result="effect1_dropShadow_47_43"/>
<feBlend mode="normal" in="SourceGraphic" in2="effect1_dropShadow_47_43" result="shape"/>
</filter>
<filter id="filter1_d_47_43" x="164.756" y="3.75" width="135.58" height="192.5" filterUnits="userSpaceOnUse" color-interpolation-filters="sRGB">
<feFlood flood-opacity="0" result="BackgroundImageFix"/>
<feColorMatrix in="SourceAlpha" type="matrix" values="0 0 0 0 0 0 0 0 0 0 0 0 0 0 0 0 0 0 127 0" result="hardAlpha"/>
<feOffset/>
<feGaussianBlur stdDeviation="15.5"/>
<feColorMatrix type="matrix" values="0 0 0 0 0.08 0 0 0 0 0 0 0 0 0 1 0 0 0 1 0"/>
<feBlend mode="normal" in2="BackgroundImageFix" result="effect1_dropShadow_47_43"/>
<feBlend mode="normal" in="SourceGraphic" in2="effect1_dropShadow_47_43" result="shape"/>
</filter>
<filter id="filter2_d_47_43" x="0.0469894" y="3.75" width="135.58" height="192.5" filterUnits="userSpaceOnUse" color-interpolation-filters="sRGB">
<feFlood flood-opacity="0" result="BackgroundImageFix"/>
<feColorMatrix in="SourceAlpha" type="matrix" values="0 0 0 0 0 0 0 0 0 0 0 0 0 0 0 0 0 0 127 0" result="hardAlpha"/>
<feOffset/>
<feGaussianBlur stdDeviation="15.5"/>
<feColorMatrix type="matrix" values="0 0 0 0 0.08 0 0 0 0 0 0 0 0 0 1 0 0 0 1 0"/>
<feBlend mode="normal" in2="BackgroundImageFix" result="effect1_dropShadow_47_43"/>
<feBlend mode="normal" in="SourceGraphic" in2="effect1_dropShadow_47_43" result="shape"/>
</filter>
<filter id="filter3_d_47_43" x="0.0469894" y="3.75" width="135.58" height="192.5" filterUnits="userSpaceOnUse" color-interpolation-filters="sRGB">
<feFlood flood-opacity="0" result="BackgroundImageFix"/>
<feColorMatrix in="SourceAlpha" type="matrix" values="0 0 0 0 0 0 0 0 0 0 0 0 0 0 0 0 0 0 127 0" result="hardAlpha"/>
<feOffset/>
<feGaussianBlur stdDeviation="15.5"/>
<feColorMatrix type="matrix" values="0 0 0 0 0.08 0 0 0 0 0 0 0 0 0 1 0 0 0 1 0"/>
<feBlend mode="normal" in2="BackgroundImageFix" result="effect1_dropShadow_47_43"/>
<feBlend mode="normal" in="SourceGraphic" in2="effect1_dropShadow_47_43" result="shape"/>
</filter>
<filter id="filter4_d_47_43" x="78.5111" y="3.73499" width="131.967" height="200.53" filterUnits="userSpaceOnUse" color-interpolation-filters="sRGB">
<feFlood flood-opacity="0" result="BackgroundImageFix"/>
<feColorMatrix in="SourceAlpha" type="matrix" values="0 0 0 0 0 0 0 0 0 0 0 0 0 0 0 0 0 0 127 0" result="hardAlpha"/>
<feOffset dy="4"/>
<feGaussianBlur stdDeviation="17.5"/>
<feColorMatrix type="matrix" values="0 0 0 0 0 0 0 0 0 0.141467 0 0 0 0 0.884167 0 0 0 0.85 0"/>
<feBlend mode="normal" in2="BackgroundImageFix" result="effect1_dropShadow_47_43"/>
<feBlend mode="normal" in="SourceGraphic" in2="effect1_dropShadow_47_43" result="shape"/>
</filter>
<clipPath id="clip0_47_43">
<rect width="300" height="200" fill="white"/>
</clipPath>
</defs>
</svg>
